HIERARCHY
ROOT Hips
{
	OFFSET 0.000000 0.000000 0.000000 
	CHANNELS 6 Xposition Yposition Zposition Zrotation Yrotation Xrotation
	JOINT LeftUpLeg
	{
		OFFSET 1.363060 -1.794630 0.839290 
		CHANNELS 3 Zrotation Yrotation Xrotation
		JOINT LeftLeg
		{
			OFFSET 2.448110 -6.726130 0.000000 
			CHANNELS 3 Zrotation Yrotation Xrotation
			JOINT LeftFoot
			{
				OFFSET 2.562200 -7.039590 0.000000 
				CHANNELS 3 Zrotation Yrotation Xrotation
				JOINT LeftToeBase
				{
					OFFSET 0.157640 -0.433110 2.322550 
					CHANNELS 3 Zrotation Yrotation Xrotation
					End Site
					{
						OFFSET 0.000000 0.000000 0.000000 
					}
				}
			}
		}
	}
	JOINT RightUpLeg
	{
		OFFSET -1.305520 -1.794630 0.839290 
		CHANNELS 3 Zrotation Yrotation Xrotation
		JOINT RightLeg
		{
			OFFSET -2.542530 -6.985550 0.000000 
			CHANNELS 3 Zrotation Yrotation Xrotation
			JOINT RightFoot
			{
				OFFSET -2.568260 -7.056230 0.000000 
				CHANNELS 3 Zrotation Yrotation Xrotation
				JOINT RightToeBase
				{
					OFFSET -0.164730 -0.452590 2.363150 
					CHANNELS 3 Zrotation Yrotation Xrotation
					End Site
					{
						OFFSET 0.000000 0.000000 0.000000 
					}
				}
			}
		}
	}
	JOINT Spine
	{
		OFFSET 0.028270 2.035590 -0.193380 
		CHANNELS 3 Zrotation Yrotation Xrotation
		JOINT Spine1
		{
			OFFSET 0.056720 2.048850 -0.042750 
			CHANNELS 3 Zrotation Yrotation Xrotation
			JOINT Neck1
			{
				OFFSET -0.054170 1.746240 0.172020 
				CHANNELS 3 Zrotation Yrotation Xrotation
				JOINT Head
				{
					OFFSET 0.104070 1.761360 -0.123970 
					CHANNELS 3 Zrotation Yrotation Xrotation
					End Site
					{
						OFFSET 0.000000 0.000000 0.000000 
					}
				}
			}
			JOINT LeftArm
			{
				OFFSET 3.362410 1.200890 -0.311210 
				CHANNELS 3 Zrotation Yrotation Xrotation
				JOINT LeftForeArm
				{
					OFFSET 4.983000 -0.000000 -0.000000 
					CHANNELS 3 Zrotation Yrotation Xrotation
					JOINT LeftHand
					{
						OFFSET 3.483560 -0.000000 -0.000000 
						CHANNELS 3 Zrotation Yrotation Xrotation
						JOINT LeftHandIndex1
						{
							OFFSET 0.715260 -0.000000 -0.000000 
							CHANNELS 3 Zrotation Yrotation Xrotation
							End Site
							{
								OFFSET 0.000000 0.000000 0.000000 
							}
						}
					}
				}
			}
			JOINT RightArm
			{
				OFFSET -3.136600 1.374050 -0.404650 
				CHANNELS 3 Zrotation Yrotation Xrotation
				JOINT RightForeArm
				{
					OFFSET -5.241900 -0.000000 -0.000000 
					CHANNELS 3 Zrotation Yrotation Xrotation
					JOINT RightHand
					{
						OFFSET -3.444170 -0.000000 -0.000000 
						CHANNELS 3 Zrotation Yrotation Xrotation
						JOINT RightHandIndex1
						{
							OFFSET -0.622530 -0.000000 -0.000000 
							CHANNELS 3 Zrotation Yrotation Xrotation
							End Site
							{
								OFFSET 0.000000 0.000000 0.000000 
							}
						}
					}
				}
			}
		}
	}
}
MOTION
Frames: 7
Frame Time: 0.041667
0.663359 18.372818 9.524765 -11.271772 0.422978 12.567303 -18.501141 -44.167618 19.719154 -3.730980 -2.570997 -3.424970 -15.191593 45.395887 -28.085080 0.219100 3.013300 8.315800 25.445375 26.626440 0.417972 3.516157 -0.657721 2.611630 7.455275 -24.497809 -1.328152 -0.000200 0.099400 -0.273000 24.052152 7.706580 -20.894832 -13.612615 -1.094658 -11.806069 13.094887 -20.196540 24.428163 1.656900 -8.891700 7.754300 -85.430719 12.687048 -5.601505 9.703683 -11.145544 -1.431006 -0.241801 1.674073 27.588048 -7.125000 0.000000 0.000000 80.751584 -14.364636 -10.341213 -11.524530 15.603057 -1.970201 0.909690 1.364626 46.318200 7.125000 0.000000 0.000000 
0.655579 18.363144 9.512989 -11.523543 0.750645 13.007355 -17.426640 -43.726899 18.522482 -3.696627 -2.532680 -3.399311 -15.141149 45.088849 -27.000879 0.190400 2.810500 7.751600 25.578781 26.698798 -0.020738 3.512016 -0.738847 2.706569 7.488509 -24.655317 -1.433982 -0.001800 0.272300 -0.748200 25.012415 8.044697 -22.440851 -13.740221 -1.231362 -11.416451 13.401099 -19.961799 23.875013 1.909200 -8.815200 7.642100 -86.116468 13.168195 -5.890903 9.779890 -11.206881 -1.451397 -0.243571 1.678308 27.418740 -7.125000 0.000000 0.000000 80.699656 -14.823721 -9.852882 -11.515245 15.610791 -1.979230 0.910827 1.353348 46.247944 7.125000 0.000000 0.000000 
0.656840 18.359990 9.520665 -11.672158 0.696255 13.104402 -17.597647 -44.005948 18.893070 -3.714750 -2.563158 -3.437044 -15.153044 45.226916 -27.684100 0.220300 3.021500 8.338500 25.606934 26.636886 -0.158248 3.505966 -0.772356 2.743591 7.410807 -24.483265 -1.283805 -0.003500 0.383800 -1.054700 25.960334 8.317104 -23.080835 -13.887155 -1.312454 -11.148934 13.686859 -19.738248 23.379234 2.133100 -8.741700 7.524100 -86.747758 13.588142 -6.282216 9.835801 -11.252150 -1.467638 -0.248438 1.690347 27.320873 -7.125000 0.000000 0.000000 80.546501 -15.238479 -9.350166 -11.498368 15.611608 -1.984449 0.915490 1.345879 46.151569 7.125000 0.000000 0.000000 
0.657576 18.355995 9.522347 -11.732473 0.717634 13.302250 -17.555536 -44.153710 18.845168 -3.718815 -2.572563 -3.451513 -15.167566 45.290392 -27.931486 0.232700 3.104600 8.570100 25.524521 26.764243 -0.325153 3.505684 -0.796636 2.747972 7.402402 -24.477964 -1.310018 -0.001300 0.233300 -0.640900 26.745681 8.510951 -23.697420 -13.922124 -1.410119 -10.935567 13.845725 -19.515417 22.949593 2.315400 -8.673600 7.430000 -87.383253 13.949064 -6.591208 9.908196 -11.310938 -1.486143 -0.250531 1.696088 27.139362 -7.125000 0.000000 0.000000 80.319357 -15.541706 -8.897752 -11.454873 15.580771 -1.982580 0.923300 1.339211 46.145982 7.125000 0.000000 0.000000 
0.653160 18.354838 9.532336 -11.549179 0.896207 13.761466 -17.427897 -44.426230 18.369178 -3.704797 -2.544705 -3.453558 -15.210394 45.354141 -27.846651 0.227300 3.068600 8.469800 25.169314 27.171133 -0.491524 3.522093 -0.762001 2.581188 7.568685 -24.924399 -1.604554 -0.000200 -0.091400 0.251000 27.123325 8.529324 -24.551412 -13.694112 -1.523039 -10.455480 13.974333 -19.281389 22.529619 2.467500 -8.593900 7.334800 -87.949144 14.300624 -6.722091 10.019224 -11.400841 -1.511035 -0.253726 1.689512 26.798742 -7.125000 0.000000 0.000000 79.974605 -15.690817 -8.455555 -11.253143 15.332097 -1.931853 0.941708 1.314084 46.163750 7.125000 0.000000 0.000000 
0.641069 18.351684 9.547897 -11.148157 1.135545 14.688128 -17.179984 -44.926909 17.390003 -3.683795 -2.482511 -3.409819 -15.195238 45.363232 -27.933839 0.236600 3.130300 8.641800 24.361718 27.728396 -1.067919 3.541859 -0.740284 2.360455 7.807763 -25.572666 -1.912786 -0.004800 -0.447000 1.228300 27.863292 8.593738 -26.228170 -13.141047 -1.763658 -9.672548 14.171729 -18.730991 21.626502 2.788100 -8.411900 7.123700 -89.280891 15.050044 -6.703005 10.395344 -11.747359 -1.566032 -0.347929 1.504923 26.042094 -7.125000 0.000000 0.000000 79.216272 -16.161662 -7.308877 -10.881069 14.900625 -1.842191 0.963522 1.266364 45.961176 7.125000 0.000000 0.000000 
0.634970 18.354628 9.550946 -10.985774 1.233031 14.918775 -17.131712 -45.040405 16.997094 -3.678780 -2.471541 -3.371270 -15.156179 45.287300 -27.895199 0.237600 3.137100 8.660700 23.976709 27.900274 -1.282929 3.548059 -0.729660 2.284559 7.903307 -25.812071 -2.021897 -0.008300 -0.587900 1.615500 28.850667 8.420569 -25.848945 -12.946250 -1.978084 -9.732440 13.969262 -18.463428 21.732714 2.808200 -8.300400 7.217700 -89.890330 14.984242 -7.067786 10.536114 -11.880100 -1.587458 -0.373235 1.445470 25.911808 -7.125000 0.000000 0.000000 78.631204 -15.878738 -6.754184 -10.636662 14.621935 -1.776479 0.969659 1.233120 46.050322 7.125000 0.000000 0.000000 
